<?xml version="1.0" encoding="UTF-8"?>
<svg width="317px" height="132px" viewBox="0 0 317 132" version="1.1" xmlns="http://www.w3.org/2000/svg" xmlns:xlink="http://www.w3.org/1999/xlink">
    <!-- Generator: sketchtool 51.3 (57544) - http://www.bohemiancoding.com/sketch -->
    <title>C5E24A9E-89F5-4BC8-8F27-5294AFDACE2C</title>
    <desc>Created with sketchtool.</desc>
    <defs></defs>
    <g id="mobile管理员-重绘" stroke="none" stroke-width="1" fill="none" fill-rule="evenodd">
        <g id="满意度调查-intro" transform="translate(-29.000000, -426.000000)">
            <g id="Group-3" transform="translate(10.000000, 74.000000)">
                <g id="1" transform="translate(19.000000, 352.000000)">
                    <rect id="Rectangle" stroke="#DDDDDD" stroke-width="0.5" fill="#F9F9F9" x="0.75" y="10.75" width="315.5" height="120.5" rx="3"></rect>
                    <g id="Group-5" transform="translate(269.000000, 66.000000)">
                        <path d="M8.43575856,64.9257391 L9.92022842,23.3989677 C9.9399585,22.8470355 10.4033824,22.4156004 10.9553146,22.4353305 C11.3180203,22.4482962 11.6452283,22.6567637 11.8102471,22.9800164 L14.6590058,28.5604034 L30.0502005,28.5604034 L33.0902423,21.4830364 C33.3082149,20.9755855 33.8962868,20.740917 34.4037377,20.9588895 C34.7246775,21.0967474 34.950427,21.3920752 34.9992476,21.7379418 L41.0953944,64.9257391" id="Path-2" stroke="#979797" stroke-width="0.5" fill="#FFFFFF"></path>
                        <path d="M11,0 L32,-4.4408921e-16 C32.5522847,-5.45542273e-16 33,0.44771525 33,1 L33,14 C33,14.5522847 32.5522847,15 32,15 L24.303551,15 L21.5,18 L19.1310375,15 L11,15 C10.4477153,15 10,14.5522847 10,14 L10,1 C10,0.44771525 10.4477153,1.01453063e-16 11,0 Z" id="Rectangle-5" fill="#33AC37"></path>
                        <g id="icons/white/mail" transform="translate(17.000000, 2.000000)" fill="#FFFFFF">
                            <path d="M0,1.125 L4.5,5.625 L9,1.125 L9,7.875 L0,7.875 L0,1.125 Z M4.5,4.5 L1.125,1.125 L7.875,1.125 L4.5,4.5 Z" id="mail"></path>
                        </g>
                        <path d="M33.5,47 C35.2186335,47 36.8306758,46.5916674 38.2215511,45.8775172 C38.2215511,45.8775172 36.0355848,30.3061215 36.0355848,30.3061215 C35.2284048,30.1065985 34.3781156,30 33.5,30 C28.2532949,30 24,33.8055796 24,38.5 C24,43.1944204 28.2532949,47 33.5,47 Z" id="Oval-3" fill="#D8D8D8"></path>
                        <path d="M21,48 L24.1782181,48 L24.0577137,51.0065248 C24.0254721,51.8109359 23.363974,52.4464516 22.5589171,52.4464516 L22.5,52.4464516 C21.6715729,52.4464516 21,51.7748787 21,50.9464516 L21,48 Z" id="Rectangle-6" fill="#FF7070"></path>
                        <path d="M20.4702038,47.9554255 C21.2416902,47.6412039 21.9513729,47.0169873 22.599252,46.082776 C22.599252,46.082776 23.3116817,47.5355046 24.9094965,47.9492869 C25.7428749,48.165105 19.2769721,48.4414214 20.4702038,47.9554255 Z" id="Path-6" stroke="#505050" stroke-width="0.5" fill="#B93131"></path>
                        <path d="M16.4469733,47.1887267 C18.8985608,48.8305505 20.9493204,48.4619003 22.599252,46.082776 C22.599252,46.082776 24.24866,49.4461143 28.1567506,47.3952983" id="Path-6" stroke="#505050" stroke-width="0.5"></path>
                        <rect id="Rectangle-3" fill="#505050" transform="translate(16.000000, 38.500000) rotate(90.000000) translate(-16.000000, -38.500000) " x="15.5" y="37.5" width="1" height="2"></rect>
                        <rect id="Rectangle-3" fill="#505050" transform="translate(29.000000, 38.500000) rotate(90.000000) translate(-29.000000, -38.500000) " x="28.5" y="37.5" width="1" height="2"></rect>
                        <path d="M0.124052757,34.0373317 L5.31911314,34.0373317" id="Path-7" stroke="#979797" stroke-width="0.5"></path>
                        <path d="M2.21256145,30.3650414 L5.29875242,31.1919838" id="Path-7" stroke="#979797" stroke-width="0.5"></path>
                        <path d="M2.21256145,37.3650414 L5.29875242,36.1919838" id="Path-7" stroke="#979797" stroke-width="0.5"></path>
                        <polygon id="Triangle-3" fill="#505050" transform="translate(22.500000, 45.000000) rotate(180.000000) translate(-22.500000, -45.000000) " points="22.5 44 24.5 46 20.5 46"></polygon>
                    </g>
                    <g id="Group-4" transform="translate(111.000000, 25.000000)">
                        <path d="M40.9730722,62.0950733 C27.2106466,58.720785 17,46.3028046 17,31.5 C17,14.1030304 31.1030304,0 48.5,0 C65.8969696,0 80,14.1030304 80,31.5 C80,36.2704788 78.9395525,40.7932768 77.0415289,44.8455227 L82,106 L26,106 L40.9730722,62.0950733 Z" id="Combined-Shape" fill="#FFFFFF"></path>
                        <path d="M80,105.543035 C77.8617116,65.4240729 76.7925674,45.3645919 76.7925674,45.3645919 C78.8465849,41.1809977 80,36.4751961 80,31.5 C80,14.1030304 65.8969696,0 48.5,0 C31.1030304,0 17,14.1030304 17,31.5 C17,46.0982353 26.9303819,58.3771057 40.4045498,61.9500151 C40.4045498,61.9500151 35.8469885,76.4810217 26.7318659,105.543035" id="Oval-2" stroke="#979797" stroke-width="0.5"></path>
                        <path d="M1,53 L22,53 C22.5522847,53 23,53.4477153 23,54 L23,71 L19.2872266,68 L1,68 C0.44771525,68 6.76353751e-17,67.5522847 0,67 L0,54 C-6.76353751e-17,53.4477153 0.44771525,53 1,53 Z" id="Rectangle-5" fill="#33AC37"></path>
                        <g id="icons/white/mail" transform="translate(7.000000, 56.000000)" fill="#FFFFFF">
                            <path d="M0,1.125 L4.5,5.625 L9,1.125 L9,7.875 L0,7.875 L0,1.125 Z M4.5,4.5 L1.125,1.125 L7.875,1.125 L4.5,4.5 Z" id="mail"></path>
                        </g>
                        <rect id="Rectangle-3" fill="#505050" transform="translate(28.500000, 48.000000) rotate(-30.000000) translate(-28.500000, -48.000000) " x="28" y="45" width="1" height="6"></rect>
                        <rect id="Rectangle-3" fill="#505050" transform="translate(49.500000, 39.000000) rotate(-30.000000) translate(-49.500000, -39.000000) " x="49" y="36" width="1" height="6"></rect>
                        <path d="M22.6338341,72.8366688 C22.5449719,72.8188963 22.4529503,72.8256087 22.3676078,72.8560882 C22.107553,72.9489649 21.9720283,73.2350725 22.0649051,73.4951273 L26.2851368,85.3117761 C26.3429345,85.4736098 26.4797896,85.594423 26.6475425,85.6317014 L33.4684826,87.1474659 C33.5497569,87.1655269 33.6342549,87.1630068 33.7143084,87.1401343 C33.9798259,87.0642722 34.133572,86.7875293 34.0577098,86.5220118 L30.6867465,74.7236402 C30.6353138,74.5436258 30.4876249,74.4074269 30.3040426,74.3707105 L22.6338341,72.8366688 Z" id="Rectangle-4" stroke="#979797" fill="#979797"></path>
                        <path d="M61.8338665,62.5119539 C61.4862172,78.6599902 54.1706614,85.0564388 39.8871991,81.7012998 C37.1695073,80.976111 35.0657353,80.434931 33.5758831,80.0777597 L33.5758904,80.0777295 C33.3552321,80.0248298 33.1334696,80.1608249 33.0805699,80.3814831 C33.0496095,80.5106267 33.0829807,80.6467708 33.1701538,80.7469578 L33.1701538,80.7469578 C33.379023,80.9870088 33.3537452,81.3509305 33.1136942,81.5597997 C33.0088277,81.6510444 32.8745087,81.7012998 32.7355031,81.7012998 L30.8517375,81.7012998 C30.5739238,81.7012998 30.3487113,81.9265123 30.3487113,82.204326 C30.3487113,82.3883006 30.4491462,82.5575997 30.6106055,82.6457903 L30.822227,82.76138 C31.0362023,82.8782553 31.1149173,83.1464627 30.9980419,83.360438 C30.9206444,83.5021373 30.7720647,83.5902807 30.6106055,83.5902807 L30.6106055,83.5902807 C30.4294123,83.5902807 30.2825262,83.7371668 30.2825262,83.91836 C30.2825262,84.0531714 30.3649943,84.1742609 30.4904371,84.2236394 L30.7307739,84.3182442 C30.8993751,84.3846114 30.9822521,84.5750909 30.9158849,84.7436921 C30.8665064,84.8691348 30.7454169,84.9516029 30.6106055,84.9516029 L30.6106055,84.9516029 C30.368055,84.9516029 30.171429,85.1482289 30.171429,85.3907794 C30.171429,85.5536259 30.2615375,85.7031037 30.405542,85.7791412 C38.8971972,90.2628925 45.8808058,91.7870012 51.3563785,90.3514471 C60.0560152,88.0706264 68.6026547,83.1636052 68.6026547,63.8975631" id="Path-4" stroke="#979797" stroke-width="0.5" fill="#FFFFFF"></path>
                        <path d="M42.5302338,57.5010006 C43.9836261,55.2657833 44.7450754,53.43245 44.8145818,52.0010006 C44.8840882,50.5695511 44.1226389,48.7362178 42.5302338,46.5010006" id="Oval-6" stroke="#505050" transform="translate(43.674588, 52.001001) rotate(-291.000000) translate(-43.674588, -52.001001) "></path>
                        <path d="M7.12405276,38.0373317 L12.3191131,38.0373317" id="Path-7" stroke="#979797" stroke-width="0.5"></path>
                        <path d="M9.21256145,34.3650414 L12.2987524,35.1919838" id="Path-7" stroke="#979797" stroke-width="0.5"></path>
                        <path d="M9.21256145,41.3650414 L12.2987524,40.1919838" id="Path-7" stroke="#979797" stroke-width="0.5"></path>
                    </g>
                    <g id="Group-6" transform="translate(201.000000, 0.000000)">
                        <path d="M55,81.4996583 L55,130.863005 L8,130.863005 L18,72.8630045 L19.9254495,72.8630045 L17.9282032,71.7098938 C14.1018622,69.5007548 12.790861,64.6080316 15,60.7816906 L30.4616451,34.0013358 C32.6707841,30.1749948 37.5635073,28.8639936 41.3898483,31.0731326 L66.504585,45.5731326 C70.330926,47.7822716 71.6419272,52.6749948 69.4327882,56.5013358 L55,81.4996583 Z" id="Combined-Shape" fill="#FFFFFF"></path>
                        <path d="M50.5063924,56.7943324 L55.2773414,53.2872384 C57.4858599,51.6637707 60.4387257,51.4786983 62.8326681,52.8137043 L89.4837691,67.6759584 C93.3425865,69.8278667 94.7263097,74.7005225 92.5744014,78.5593399 C92.5550577,78.5940272 92.535456,78.6285699 92.5155978,78.6629653 L77.2993082,105.018352 C75.0901692,108.844693 70.197446,110.155694 66.371105,107.946555 C66.266539,107.886184 66.1633532,107.823453 66.0616268,107.758411 L41.9108139,92.3167955 L-7.24775827,92.3167955" id="Rectangle-9" stroke="#979797" stroke-width="0.5" fill="#FFFFFF" transform="translate(43.170541, 80.473500) rotate(-90.000000) translate(-43.170541, -80.473500) "></path>
                        <rect id="Rectangle-3" fill="#505050" transform="translate(28.933013, 51.848076) rotate(30.000000) translate(-28.933013, -51.848076) " x="28.4330127" y="48.8480762" width="1" height="6"></rect>
                        <path d="M29.4153474,69.456452 C30.8687396,67.2212348 31.630189,65.3879014 31.6996954,63.956452 C31.7692018,62.5250026 31.0077525,60.6916693 29.4153474,58.456452" id="Oval-6" stroke="#505050" transform="translate(30.559702, 63.956452) rotate(110.000000) translate(-30.559702, -63.956452) "></path>
                        <rect id="Rectangle-3" fill="#505050" transform="translate(42.933013, 55.848076) rotate(30.000000) translate(-42.933013, -55.848076) " x="42.4330127" y="52.8480762" width="1" height="6"></rect>
                        <path d="M4,0 L25,-4.4408921e-16 C25.5522847,-5.45542273e-16 26,0.44771525 26,1 L26,14 C26,14.5522847 25.5522847,15 25,15 L17.303551,15 L14.5,18 L12.1310375,15 L4,15 C3.44771525,15 3,14.5522847 3,14 L3,1 C3,0.44771525 3.44771525,1.01453063e-16 4,0 Z" id="Rectangle-5" fill="#33AC37"></path>
                        <g id="icons/white/mail" transform="translate(10.000000, 3.000000)" fill="#FFFFFF">
                            <path d="M0,1.125 L4.5,5.625 L9,1.125 L9,7.875 L0,7.875 L0,1.125 Z M4.5,4.5 L1.125,1.125 L7.875,1.125 L4.5,4.5 Z" id="mail"></path>
                        </g>
                        <rect id="Rectangle-8" fill="#979797" transform="translate(14.031089, 27.946152) rotate(30.000000) translate(-14.031089, -27.946152) " x="10.5310889" y="21.9461524" width="7" height="12" rx="1"></rect>
                        <path d="M9.70129823,130.979399 L16.8218703,81.659072 C2.76244188,75.3587599 -1.93491467,63.7081775 2.72980068,46.7073248 C6.12763783,34.3236905 9.13735704,27.2438058 11.7589583,25.4676707 L11.7589573,25.4676692 C12.2161879,25.1578954 12.8379677,25.2774328 13.1477415,25.7346634 C13.430981,26.152729 13.3580876,26.7163608 12.9778107,27.0486152 L12.7432756,27.2535324 C12.4868853,27.477545 12.4606379,27.8669884 12.6846504,28.1233787 C12.8265426,28.2857794 13.0429833,28.3622266 13.2553959,28.324967 L13.5240244,28.2778464 C13.9203168,28.2083322 14.2979276,28.4732381 14.3674419,28.8695305 C14.4036878,29.0761638 14.3490951,29.2883927 14.2176395,29.4518874 L13.8254892,29.9396144 C13.7081745,30.0855217 13.7313534,30.2989052 13.8772606,30.4162199 C13.9732589,30.493406 14.1035722,30.5124436 14.2176395,30.465946 L14.2176395,30.465946 C14.5319495,30.337823 14.8906124,30.4887573 15.0187354,30.8030674 C15.0728939,30.9359283 15.0788613,31.0835508 15.0356033,31.2203496 L13.9611272,34.6182724 C6.4735762,54.4956899 7.95852217,67.0258004 18.4159651,72.2086039" id="Path-5" stroke="#979797" stroke-width="0.5" fill="#FFFFFF"></path>
                        <path d="M38.2718885,22 L38,27.1879407" id="Path-7" stroke="#979797" stroke-width="0.5"></path>
                        <path d="M41.9873278,25 L41,28.0386826" id="Path-7" stroke="#979797" stroke-width="0.5"></path>
                        <path d="M34,24 L35.0099312,27.1433545" id="Path-7" stroke="#979797" stroke-width="0.5"></path>
                    </g>
                    <text id="自动发放" font-family="PingFangSC-Regular, PingFang SC" font-size="18" font-weight="normal" fill="#505050">
                        <tspan x="13" y="40">自动发放</tspan>
                    </text>
                    <text id="每隔三个月-同一时间发放" font-family="PingFangSC-Regular, PingFang SC" font-size="14" font-weight="normal" fill="#505050" fill-opacity="0.4">
                        <tspan x="13" y="61">每隔三个月</tspan>
                        <tspan x="13" y="81">同一时间发放</tspan>
                    </text>
                </g>
            </g>
        </g>
    </g>
</svg>