<svg width="317" height="132" xmlns="http://www.w3.org/2000/svg"><g fill="none" fill-rule="evenodd"><rect stroke="#DDD" stroke-width=".5" fill="#F9F9F9" x=".75" y="10.75" width="315.5" height="120.5" rx="3"/><path d="M277.436 130.926l1.484-41.527a1 1 0 0 1 1.89-.419l2.849 5.58h15.391l3.04-7.077a1 1 0 0 1 1.91.255l6.095 43.188" stroke="#979797" stroke-width=".5" fill="#FFF"/><path d="M280 66h21a1 1 0 0 1 1 1v13a1 1 0 0 1-1 1h-7.696l-2.804 3-2.369-3H280a1 1 0 0 1-1-1V67a1 1 0 0 1 1-1z" fill="#33AC37"/><path d="M286 69.125l4.5 4.5 4.5-4.5v6.75h-9v-6.75zm4.5 3.375l-3.375-3.375h6.75L290.5 72.5z" fill="#FFF"/><path d="M302.5 113c1.719 0 3.33-.408 4.722-1.122l-2.186-15.572c-.808-.2-1.658-.306-2.536-.306-5.247 0-9.5 3.806-9.5 8.5s4.253 8.5 9.5 8.5z" fill="#D8D8D8"/><path d="M290 114h3.178l-.12 3.007a1.5 1.5 0 0 1-1.5 1.44h-.058a1.5 1.5 0 0 1-1.5-1.5V114z" fill="#FF7070"/><path d="M289.47 113.955c.772-.314 1.481-.938 2.13-1.872 0 0 .712 1.453 2.31 1.866.833.216-5.633.492-4.44.006z" stroke="#505050" stroke-width=".5" fill="#B93131"/><path d="M285.447 113.189c2.452 1.642 4.502 1.273 6.152-1.106 0 0 1.65 3.363 5.558 1.312" stroke="#505050" stroke-width=".5"/><path fill="#505050" d="M286 104v1h-2v-1zm13 0v1h-2v-1z"/><path d="M269.124 100.037h5.195m-3.106-3.672l3.086.827m-3.086 6.173l3.086-1.173" stroke="#979797" stroke-width=".5"/><path fill="#505050" d="M291.5 112l-2-2h4z"/><path d="M151.973 87.095C138.211 83.721 128 71.303 128 56.5c0-17.397 14.103-31.5 31.5-31.5S191 39.103 191 56.5c0 4.77-1.06 9.293-2.958 13.346L193 131h-56l14.973-43.905z" fill="#FFF"/><path d="M191 130.543l-3.207-60.178A31.372 31.372 0 0 0 191 56.5c0-17.397-14.103-31.5-31.5-31.5S128 39.103 128 56.5c0 14.598 9.93 26.877 23.405 30.45l-13.673 43.593" stroke="#979797" stroke-width=".5"/><path d="M112 78h21a1 1 0 0 1 1 1v17l-3.713-3H112a1 1 0 0 1-1-1V79a1 1 0 0 1 1-1z" fill="#33AC37"/><path d="M118 82.125l4.5 4.5 4.5-4.5v6.75h-9v-6.75zm4.5 3.375l-3.375-3.375h6.75L122.5 85.5z" fill="#FFF"/><path fill="#505050" d="M137.567 70.652l.866-.5 3 5.196-.866.5zm21-9l.866-.5 3 5.196-.866.5z"/><path d="M133.634 97.837a.5.5 0 0 0-.57.658l4.221 11.817a.5.5 0 0 0 .363.32l6.82 1.515a.5.5 0 0 0 .59-.625l-3.371-11.798a.5.5 0 0 0-.383-.353l-7.67-1.534z" stroke="#979797" fill="#979797"/><path d="M172.834 87.512c-.348 16.148-7.663 22.544-21.947 19.19a274.132 274.132 0 0 0-6.311-1.624h0a.41.41 0 0 0-.406.669h0a.576.576 0 0 1-.434.954h-1.884a.503.503 0 0 0-.241.945l.211.115a.441.441 0 0 1-.211.83h0a.328.328 0 0 0-.12.633l.24.094a.328.328 0 0 1-.12.634h0a.44.44 0 0 0-.205.827c8.491 4.484 15.475 6.008 20.95 4.572 8.7-2.28 17.247-7.187 17.247-26.453" stroke="#979797" stroke-width=".5" fill="#FFF"/><path d="M149.13 77.904c2.607.556 4.592.61 5.953.161 1.361-.448 2.8-1.816 4.316-4.103" stroke="#505050"/><path d="M118.124 63.037h5.195m-3.106-3.672l3.086.827m-3.086 6.173l3.086-1.173" stroke="#979797" stroke-width=".5"/><g transform="translate(201)"><path d="M55 81.5v49.363H8l10-58h1.925l-1.997-1.153A8 8 0 0 1 15 60.782l15.462-26.78a8 8 0 0 1 10.928-2.929l25.115 14.5a8 8 0 0 1 2.928 10.928L55 81.5z" fill="#FFF"/><path d="M19.491 73.138l-3.507-4.771a7 7 0 0 1-.473-7.556l14.862-26.65a8 8 0 0 1 10.987-3.033l26.355 15.217a8 8 0 0 1 2.74 11.237L55.014 81.733v49.159" stroke="#979797" stroke-width=".5" fill="#FFF"/><path fill="#505050" d="M30 49l.866.5-3 5.196-.866-.5z"/><path d="M25.783 61c1.603 2.13 3.065 3.473 4.387 4.028 1.321.555 3.304.466 5.95-.266" stroke="#505050"/><path fill="#505050" d="M44 53l.866.5-3 5.196-.866-.5z"/><path d="M4 0h21a1 1 0 0 1 1 1v13a1 1 0 0 1-1 1h-7.696L14.5 18l-2.369-3H4a1 1 0 0 1-1-1V1a1 1 0 0 1 1-1z" fill="#33AC37"/><path d="M10 4.125l4.5 4.5 4.5-4.5v6.75h-9v-6.75zM14.5 7.5l-3.375-3.375h6.75L14.5 7.5z" fill="#FFF"/><rect fill="#979797" transform="rotate(30 14.031 27.946)" x="10.531" y="21.946" width="7" height="12" rx="1"/><path d="M9.701 130.98l7.12-49.32C2.763 75.358-1.934 63.707 2.73 46.706c3.398-12.383 6.407-19.463 9.029-21.24h0a1 1 0 0 1 1.219 1.582l-.235.205a.616.616 0 0 0 .512 1.071l.269-.047a.729.729 0 0 1 .694 1.174l-.393.488a.339.339 0 0 0 .393.526h0a.615.615 0 0 1 .818.754l-1.075 3.398c-7.487 19.878-6.002 32.408 4.455 37.59" stroke="#979797" stroke-width=".5" fill="#FFF"/><path d="M38.272 22L38 27.188M41.987 25L41 28.039M34 24l1.01 3.143" stroke="#979797" stroke-width=".5"/></g><text font-family="PingFangSC-Regular, PingFang SC" font-size="18" fill="#505050"><tspan x="13" y="40">自动发放</tspan></text><text font-family="PingFangSC-Regular, PingFang SC" font-size="14" fill="#505050" fill-opacity=".4"><tspan x="13" y="61">每隔三个月</tspan> <tspan x="13" y="81">同一时间发放</tspan></text></g></svg>